<svg xmlns="http://www.w3.org/2000/svg" class="css-1bn76wv" focusable="false" width="100%"
    height="100%" viewBox="0 0 177.5 52.7">
    <path
        d="M67.5,11.3c-0.3-0.1-0.7-0.2-1-0.3c-0.3-0.1-0.6-0.3-0.9-0.5l0,0c-0.3-0.2-0.6-0.4-0.8-0.7l0,0  c-0.3-0.3-0.5-0.5-0.7-0.8c-0.2-0.3-0.4-0.6-0.5-0.9c-0.1-0.3-0.2-0.7-0.3-1c-0.1-0.3-0.1-0.7-0.1-1.1c0-0.8,0.1-1.5,0.4-2.1  c0.3-0.6,0.7-1.2,1.2-1.7C65,2,65.3,1.8,65.6,1.6c0.3-0.2,0.6-0.4,0.9-0.5c0.3-0.1,0.6-0.2,1-0.3c0.3-0.1,0.7-0.1,1-0.1  c0.7,0,1.4,0.1,2,0.4c0.6,0.3,1.2,0.7,1.7,1.2c0.2,0.3,0.5,0.5,0.7,0.8c0.2,0.3,0.4,0.6,0.5,0.9v0c0.1,0.3,0.2,0.6,0.3,1  c0.1,0.3,0.1,0.7,0.1,1c0,0.4,0,0.7-0.1,1c-0.1,0.3-0.2,0.7-0.3,1c-0.1,0.3-0.3,0.6-0.5,0.9c-0.2,0.3-0.4,0.6-0.7,0.8  c-0.3,0.3-0.5,0.5-0.8,0.7c-0.3,0.2-0.6,0.4-0.9,0.5c-0.3,0.1-0.6,0.2-1,0.3c-0.3,0.1-0.7,0.1-1.1,0.1  C68.2,11.4,67.8,11.4,67.5,11.3L67.5,11.3z M176.5,42.9L176.5,42.9z M155.4,14.8v6.8v0.3v0.7h0.7h0.3h4.2l0,11c0,1.4,0.1,2.8,0.3,4  c0.2,1.3,0.5,2.5,0.8,3.6c0.4,1.1,0.8,2.1,1.3,3.1c0.5,0.9,1.2,1.8,1.9,2.6c0.7,0.8,1.5,1.4,2.3,2c0.8,0.6,1.7,1.1,2.7,1.5  c1,0.4,2,0.7,3,0.9c1.1,0.2,2.2,0.4,3.4,0.4l0.3,0l0.8,0V51v-0.3v-6.8v-0.3V43l-0.7-0.1l-0.3,0c-0.6-0.1-1.1-0.1-1.6-0.3  c-0.5-0.1-1-0.3-1.4-0.5c-0.4-0.2-0.8-0.4-1.1-0.7c-0.3-0.3-0.6-0.6-0.9-0.9c-0.6-0.7-1-1.6-1.3-2.8c-0.3-1.2-0.4-2.5-0.4-4.1V22.6  h6.6h0.3h0.7v-0.7v-0.3v-6.8v-0.3v-0.7h-0.7h-0.3h-6.6V2V1.7V1H169h-0.3h-7h-0.3h-0.7v0.7V2v11.7h-4.2h-0.3h-0.7v0.7L155.4,14.8  L155.4,14.8z M135.9,20.9c0.6-1,1.2-1.8,1.9-2.6c0.7-0.8,1.5-1.4,2.4-2c0.9-0.6,1.8-1.1,2.8-1.5c1-0.4,2-0.7,3.1-0.9  c1.1-0.2,2.2-0.3,3.4-0.3h0.7h0.3h0.7v0.7v0.3v6.8v0.3v0.7h-0.7h-0.3h-0.7c-1.1,0-2.1,0.2-3,0.6c-0.8,0.4-1.5,0.9-2.1,1.6  c-0.3,0.4-0.6,0.8-0.8,1.3c-0.2,0.5-0.4,1-0.6,1.6c-0.2,0.6-0.3,1.3-0.4,2c-0.1,0.7-0.1,1.5-0.1,2.3v18.6v0.3v0.7h-0.7h-0.3h-7h-0.3  h-0.7v-0.7v-0.3V31.9c0-1.5,0.1-2.8,0.3-4.2c0.2-1.3,0.4-2.5,0.8-3.7C134.9,22.9,135.4,21.8,135.9,20.9L135.9,20.9z M94.9,20.8  c0.5-0.7,1-1.3,1.6-1.9c0.6-0.6,1.2-1.2,1.9-1.7c0.7-0.5,1.3-1,2.1-1.4c0.7-0.4,1.5-0.8,2.3-1.2c0.8-0.3,1.6-0.6,2.4-0.8l0,0  c0.8-0.2,1.6-0.4,2.5-0.5c0.9-0.1,1.7-0.2,2.6-0.2c1.6,0,3.2,0.2,4.8,0.6c1.5,0.4,3.1,1,4.5,1.7l0,0c0.7,0.4,1.4,0.8,2.1,1.3  c0.7,0.5,1.3,1,1.9,1.5c0.6,0.5,1.2,1.1,1.7,1.8c0.5,0.6,1,1.3,1.5,2c0.5,0.7,0.9,1.5,1.2,2.2c0.4,0.8,0.7,1.6,0.9,2.4  c0.2,0.8,0.4,1.7,0.6,2.6c0.1,0.9,0.2,1.8,0.2,2.7v0c0,0.3,0,0.6,0,0.9c0,0.3,0,0.6,0,0.9c0,0.3,0,0.6-0.1,0.8h0  c0,0.3-0.1,0.6-0.1,0.8l0,0.3l-0.1,0.6h-0.6h-0.3h-16.6h-10.9c0.1,0.2,0.1,0.5,0.2,0.7c0.2,0.5,0.3,1,0.6,1.4  c0.2,0.5,0.5,0.9,0.9,1.4c0.3,0.4,0.7,0.8,1.2,1.2c0.4,0.4,0.9,0.7,1.4,1l0,0c0.5,0.3,1,0.5,1.5,0.7c0.5,0.2,1.1,0.3,1.7,0.4  c0.6,0.1,1.2,0.1,1.9,0.1c1.6,0,3.1-0.3,4.4-0.8c0.7-0.3,1.4-0.7,2.1-1.2H128l0,0l0,0c-0.4,0.8-0.9,1.6-1.4,2.3  c-0.5,0.7-1.1,1.4-1.7,2.1c-0.6,0.7-1.3,1.3-1.9,1.8c-0.7,0.6-1.4,1.1-2.2,1.6c-0.8,0.5-1.6,0.9-2.4,1.3c-0.8,0.4-1.7,0.7-2.5,0.9  c-0.9,0.2-1.8,0.4-2.7,0.6c-0.9,0.1-1.8,0.2-2.8,0.2c-0.9,0-1.7-0.1-2.6-0.2c-0.9-0.1-1.7-0.3-2.5-0.5c-0.8-0.2-1.6-0.5-2.4-0.8  c-0.8-0.3-1.5-0.7-2.3-1.1c-0.7-0.4-1.4-0.9-2.1-1.4c-0.7-0.5-1.3-1.1-1.9-1.6c-0.6-0.6-1.1-1.2-1.6-1.9c-0.5-0.7-1-1.4-1.4-2.1  c-0.4-0.7-0.8-1.5-1.1-2.3c-0.3-0.8-0.6-1.6-0.8-2.4c-0.2-0.8-0.4-1.6-0.5-2.5C91,34.4,91,33.6,91,32.7c0-0.9,0.1-1.7,0.2-2.6  c0.1-0.8,0.3-1.7,0.5-2.5c0.2-0.8,0.5-1.6,0.8-2.4v0c0.3-0.8,0.7-1.5,1.1-2.3C93.9,22.2,94.4,21.5,94.9,20.8L94.9,20.8z M108.6,22.2  c-0.6,0.1-1.1,0.2-1.6,0.4c-0.5,0.2-1,0.4-1.5,0.7c-0.5,0.3-0.9,0.6-1.4,0.9c-0.8,0.7-1.5,1.4-2.1,2.3c-0.4,0.6-0.7,1.2-1,1.9h18.6  c-0.1-0.2-0.1-0.3-0.2-0.5c-0.2-0.5-0.4-0.9-0.7-1.3c-0.3-0.5-0.6-0.9-1-1.3c-0.4-0.4-0.8-0.8-1.2-1.2c-0.5-0.4-0.9-0.7-1.4-0.9h0  c-0.5-0.3-1-0.5-1.5-0.7c-1-0.4-2.1-0.5-3.2-0.5C109.7,22.1,109.1,22.1,108.6,22.2L108.6,22.2z M78,50.5V1.7V1h0.7h7.6h0.7v0.7v48.8  v0.3v0.7h-0.7H86h-7h-0.3H78v-0.7V50.5z M65,14.2h7h0.3h0.7V15v0.3v35.2v0.3v0.7h-0.7H72h-7h-0.3H64v-0.7v-0.3V15.3V15v-0.7h0.7H65z  "
        style="fill: rgb(255, 255, 255);"></path>
    <path
        d="M11.3,35.3c3.4,0,6.1,2.7,6.1,6.1c0,3.4-2.7,6.1-6.1,6.1c-3.4,0-6.1-2.7-6.1-6.1  C5.2,38.1,7.9,35.3,11.3,35.3z M38.2,38.2c6.5-6.5,6.5-17.1,0-23.6C31.6,8,21.1,8,14.6,14.6c-3.3,3.3-4.9,7.5-4.9,11.8l-9.7,0  c0-6.7,2.6-13.5,7.7-18.6C18-2.6,34.7-2.6,45,7.7C55.3,18,55.3,34.7,45,45c-5.1,5.1-11.9,7.7-18.6,7.7l0-9.7  C30.6,43,34.9,41.4,38.2,38.2L38.2,38.2z"
        style="fill: rgb(29, 139, 226);"></path>
</svg>